<?xml version="1.0" encoding="UTF-8"?><!DOCTYPE svg  PUBLIC '-//W3C//DTD SVG 1.1//EN'  'http://www.w3.org/Graphics/SVG/1.1/DTD/svg11.dtd'><svg xmlns="http://www.w3.org/2000/svg" xmlns:xlink="http://www.w3.org/1999/xlink" version="1.1"><defs><font horiz-adv-x="360.0" id="HandwritingNo1"><font-face font-family="HandwritingNo1" units-per-em="1000.0" ascent="800.0" descent="-200.0" cap-height="500.0" x-height="300.0"/><missing-glyph horiz-adv-x="360.0"/><glyph unicode=" " glyph-name="space" horiz-adv-x="360.0"/><glyph unicode="!" glyph-name="!" d="M 54.69 19.5 L 47.41 1.26 M 168.98 358 L 94.89 132.02" horiz-adv-x="224.52"/><glyph unicode="&quot;" glyph-name="&quot;" d="M 113.37 375.38 C 113.46 346.42 90.72 312.51 87.1 303.66 M 67.08 378.04 C 68.14 356.12 50.31 327.49 40.99 301.88" horiz-adv-x="167.82"/><glyph unicode="#" glyph-name="#" d="M 86.27 182.72 L 305.31 212.53 M 72.58 88.25 L 287.1 130.58 M 266.54 247.89 L 177.14 24.69 M 172.37 270 L 79.47 13.16" horiz-adv-x="374.55"/><glyph unicode="$" glyph-name="$" d="M 222.7 228.43 C 220 241.9 206.5 265.68 176.6 256.18 C 151.7 249.78 138.5 238.11 127.7 206.85 C 123.2 187.75 113.6 157.61 132 146.33 C 162.8 130.45 214.1 122.35 223.6 111.98 C 237.3 98 233 72.48 223.6 54.9 C 208.6 31.85 171.5 11.2 155.7 11.81 C 122.7 12.69 91.4 35.07 78.1 45.15 M 180 301.5 L 153.3 -19.49" horiz-adv-x="304.77"/><glyph unicode="%" glyph-name="%" d="M 195.3 62.96 C 181.4 57.84 166.2 44.29 161.6 25.7 C 156.7 5.6 172.1 -8 183.4 -8.17 C 206.5 -7.55 209.4 14.62 212.6 28.82 C 216.3 46.86 209.1 65.79 195.3 62.96 Z M 138.3 282.48 C 122.7 285.71 103.9 275.36 93.5 253.45 C 86.5 230.62 101.7 215.09 112.2 212.16 C 137.9 208.69 149.7 231.67 151.8 252.85 C 152.1 265.54 154.1 277.95 138.3 282.48 Z M 185.6 205.88 C 140.9 146.96 101.8 83.46 63.6 19.3" horiz-adv-x="281.57"/><glyph unicode="&amp;" glyph-name="&amp;" d="M 229.8 77.03 C 204.7 55.42 188.5 25.38 147.2 19.24 C 132.6 14.79 73.9 25.32 65.4 45.81 C 55.6 65.72 62.9 79.65 80.9 92.52 C 102.6 111.64 216.1 105.71 203.9 205.32 C 203.6 220.64 194.2 248.62 164.5 260.5 C 156.6 263.4 142.8 263.99 139.9 241.82 C 132.8 200.09 130.5 157.46 140.1 112.55 C 146 61.36 183.4 30.55 203.4 -11.81" horiz-adv-x="289.09"/><glyph unicode="'" glyph-name="'" d="M 89.5 439.5 C 104.5 419.86 68.6 378.12 59.3 350.11" horiz-adv-x="161.94"/><glyph unicode="(" glyph-name="(" d="M 144.6 338.89 C 11.7 224.89 38.7 75.71 135 0.29" horiz-adv-x="187.31"/><glyph unicode=")" glyph-name=")" d="M 60.6 -4.16 C 130.9 122.75 187.5 250.15 107.4 382.49" horiz-adv-x="209.24"/><glyph unicode="*" glyph-name="*" d="M 74.7 131.54 C 112 163.06 133.3 194.48 166.3 232.13 M 71.5 240.79 C 97.8 200.81 142.1 149.81 174.9 113.51 M 119.9 257.5 C 124.6 209.95 120.6 163.34 119.5 116.42 M 57.8 182.3 C 101.5 179.45 145.3 176.63 190.1 184.02" horiz-adv-x="243.68"/><glyph unicode="+" glyph-name="+" d="M 110 246.45 C 113.1 205.95 100.5 165.72 92.1 125.42 M 60.2 183.7 C 94 187.17 127.8 188.8 161.6 202.46" horiz-adv-x="239.61"/><glyph unicode="," glyph-name="," d="M 77.6 12.93 C 106.9 -1.52 51.1 -64.96 51.1 -64.96" horiz-adv-x="155.67"/><glyph unicode="-" glyph-name="-" d="M 67.8 185.19 C 102.3 186.29 136.8 189.45 171.3 195.53" horiz-adv-x="239.24"/><glyph unicode="." glyph-name="." d="M 66.1 17.29 L 63.9 -1.17" horiz-adv-x="138.27"/><glyph unicode="/" glyph-name="/" d="M 223 255.33 C 177.8 166.54 125.8 80.59 64.1 -1.47" horiz-adv-x="299.09"/><glyph unicode="0" glyph-name="0" d="M 191 214.49 C 223.4 190.99 201.6 130.88 183.3 86.85 C 164.5 49.67 123.6 7.76 81.4 11.87 C 53.4 17.47 38.8 44.03 53.7 94.16 C 89.3 196.36 166.6 230.82 191 214.49 Z" horiz-adv-x="251.15"/><glyph unicode="1" glyph-name="1" d="M 44.8 136.4 C 91.7 167.32 120.6 208.12 151.5 247.77 C 128.8 163.98 96.1 83.11 56.9 4.11" horiz-adv-x="199.44"/><glyph unicode="2" glyph-name="2" d="M 111.2 181.47 C 115.8 200.67 131.8 224.58 158.3 218.2 C 186.2 211.82 197.4 193.53 188.5 176.98 C 167.7 139.83 110.5 63.19 58 15.74 C 93.4 10.29 129.9 9.86 167.9 15.74" horiz-adv-x="236.82"/><glyph unicode="3" glyph-name="3" d="M 67.6 203.25 C 76.3 218.11 91 229 105.7 231.89 C 128.2 235.04 140.1 225.44 144.3 206.61 C 148.7 185.85 132.1 144.39 104.7 134.82 C 87.3 130.37 72.5 125.97 55.2 122.23 C 71.8 125.45 88.2 128.91 106.7 129.35 C 121.2 129.8 148.7 99.27 140.5 76.47 C 135.2 59.3 121.5 38.46 104.1 15.99 C 92.3 3.47 76.4 -5.37 40 4.04" horiz-adv-x="196.54"/><glyph unicode="4" glyph-name="4" d="M 100 222.04 C 67.2 197.98 42.7 159.75 47.1 128.3 C 52.6 100.36 69.4 92.4 91.6 96.38 C 118.3 101.04 144.8 147.51 167.6 177.36 C 134.2 120.97 98.3 65.62 75.1 4.83" horiz-adv-x="217.69"/><glyph unicode="5" glyph-name="5" d="M 160.6 218.43 C 136.9 219.29 116 209 91.3 199.33 C 68.4 172.69 54 150.61 56.7 128.77 C 114.6 122.86 149.8 116.26 158.6 104.21 C 172.1 90.2 174.7 66.87 168.3 57.78 C 155.5 33.41 132.7 17.6 115.2 12.08 C 91.8 3.28 69.7 0.07 48.3 -0.04" horiz-adv-x="225.62"/><glyph unicode="6" glyph-name="6" d="M 176.2 185.12 C 88.4 138.21 15.7 53.51 52.1 0.7 C 74 -23.7 97.4 -18.94 115.4 -10.46 C 150.3 8.37 166.8 34.86 166.8 61.14 C 167 95.25 93 87.83 55.9 71.32" horiz-adv-x="224.69"/><glyph unicode="7" glyph-name="7" d="M 47.7 107.67 C 80.9 86.44 123.8 62.01 164.5 71.06 M 102.2 203.77 C 122.1 134.69 168 167.83 215.1 206.24 C 140.6 143.9 89.4 70.94 43.8 -4.47" horiz-adv-x="261.37"/><glyph unicode="8" glyph-name="8" d="M 106.8 139.89 L 162.6 162.81 C 181.9 170.93 184.1 192.15 166 208.87 C 154.1 220.29 132.4 218.25 122.3 205.34 C 107.2 187.69 95.7 152.74 104.6 138.02 C 122.9 110.44 156.6 88.46 165.1 62.29 C 172.4 42.61 161.3 29.58 145.5 17.51 C 117.9 0.25 92.8 3.62 70.2 28.12 C 52.4 47.59 48.3 67.85 49.7 88.39 C 56.5 112.77 81.8 129.37 106.8 139.89 Z" horiz-adv-x="219.04"/><glyph unicode="9" glyph-name="9" d="M 167.8 202.98 C 154.5 182.73 117.2 173.57 91 172.56 C 68.4 172.66 62.5 210.32 69.6 234.61 C 79.4 260.45 92.9 263.67 107.4 261.49 C 133.9 258.8 160.2 250.26 163.5 231.69 C 171.9 190.85 171.4 150.52 159.2 110.86 C 150.2 74.46 92.5 29.66 50.9 14.24" horiz-adv-x="222.38"/><glyph unicode=":" glyph-name=":" d="M 64.6 9.64 L 61.8 -8.08 M 83.3 141.81 L 80.9 125.77" horiz-adv-x="158.0"/><glyph unicode=";" glyph-name=";" d="M 71.5 18.92 C 97.6 5.91 73.4 -15.72 42.9 -38.44 M 78.1 140.77 L 75.1 121.87" horiz-adv-x="150.04"/><glyph unicode="&lt;" glyph-name="&lt;" d="M 182.4 274.86 C 133.9 257.35 88.1 236.15 52.1 201.4 C 74.2 166.94 106.5 151.78 138.7 136.26" horiz-adv-x="241.14"/><glyph unicode="=" glyph-name="=" d="M 42.1 157.48 C 103.7 174.02 164.8 184.49 225.3 188.72 M 52.6 243.31 C 100.2 257.09 149.6 265.22 201.1 265.85" horiz-adv-x="286.61"/><glyph unicode="&gt;" glyph-name="&gt;" d="M 53.2 282.38 C 99.7 272.11 141.6 252.4 181.9 229.42 C 149.9 203.51 118.9 191.14 85.3 144.35" horiz-adv-x="250.14"/><glyph unicode="?" glyph-name="?" d="M 82.7 13.65 L 96.9 -7.48 M 69.8 287.65 C 83.9 320.75 107.1 336.08 128.1 334.69 C 158.6 332.09 168.9 308.53 162.1 290.31 C 145 248.61 117.9 194.14 87.6 161.71 C 66.6 138.98 73.5 117.83 77.9 108.68 C 83.3 98.57 89.5 90.67 97.4 87.49" horiz-adv-x="216.7"/><glyph unicode="@" glyph-name="@" d="M 208.9 118.94 C 215.4 98.61 230.1 89.1 245.6 80.69 C 271.6 73 291.9 77.66 309.6 103.6 C 326.8 130.01 339.3 157.15 349.3 184.68 C 355.6 210.14 354.7 234.47 347.1 257.75 C 337.4 280.43 326.1 301.66 305.4 313.79 C 280.2 324.59 254.4 330.02 227.3 323.87 C 198.3 314.2 173.1 299.18 154.2 276.65 C 129.4 247.56 101.8 218.44 83.1 185.2 C 69.3 152.72 61.2 117.54 55.7 82.79 C 54.6 56.4 56.5 30.89 70.6 8.98 C 90.6 -15.52 115.5 -22.2 142.3 -22.49 C 175.9 -24.41 196.6 -7.57 219.4 6.1 M 90.4 86.47 C 117.9 107.7 137.3 134.06 156.5 160.54 C 148.3 143.11 138.3 125.17 147.5 112.56 C 154.6 102.83 167.6 94.62 177.3 99.01 C 200.3 107.41 215.4 124.77 230.3 140.82 C 261.5 175.03 237.6 210.48 218.1 221.04 C 200.5 230.14 180.2 205.21 172.3 182.73" horiz-adv-x="409.88"/><glyph unicode="A" glyph-name="A" d="M 97.5 110.97 C 105.1 122.73 123.6 131.47 137.1 122.52 C 162.5 107.88 210.9 116.08 232.3 129.58 C 242.1 139.1 253.2 133.65 261.2 128.3 M 52.4 45.01 C 46.6 20.73 50.7 -24.39 71.5 -22.72 C 97.1 -23.49 133.4 117.23 158.1 189.49 C 168 219.51 188 235.58 221.2 233.22 C 246.4 232.17 255.4 219.07 262 204.98 C 270.7 175.03 218.8 112.43 213.6 104 C 194.2 76.23 193.7 8.66 222 -8.02 C 236.9 -17.65 271.4 -14.04 295 -0.22" horiz-adv-x="294.22"/><glyph unicode="B" glyph-name="B" d="M 81 282.46 C 102 328.18 129 337.48 161 341.24 C 185 344.16 227 323.45 237 303.17 C 251 269.67 277 217.93 239 179.93 C 228 172.01 216 165.44 202 164.6 C 218 164.09 241 164.18 264 128.98 C 282 98.83 287 46.03 259 11.84 C 245 -4.2 230 -19.97 213 -30.32 M 43 69.55 C 40 16.63 72 -8.78 93 -8.66 C 180 -2.1 137 259.77 127 277.21" horiz-adv-x="284.83"/><glyph unicode="C" glyph-name="C" d="M 163 321.03 C 95 344.29 11 212.54 62 165.38 C 103 135.72 152 142.12 170 144.58 C 205 149.51 207 194.91 198 207.3 C 188 223.64 168 234.18 149 232.55 C 117 232.79 66 160.07 53 103.78 C 45 78.12 43 10.82 73 -5.02 C 98 -18.1 120 -11.94 133 -6.13 C 155 4.38 165 30.15 161 49 C 158 66.64 133 54.95 120 41.39" horiz-adv-x="162.19"/><glyph unicode="D" glyph-name="D" d="M 139 276.58 C 159 229.17 150 -5.79 113 -8.35 C 94 -8.21 83 -7.1 61 1.99 C 48 8.44 48 26.96 58 23.66 C 67 21.67 97 -11.33 168 -0.42 C 217 7.28 266 118.15 266 118.15 C 286 174.92 271 251.18 243 313.85 C 232 339.95 218 363.7 190 365.15 C 138 366.02 77 294.04 43 238.61" horiz-adv-x="233.96"/><glyph unicode="E" glyph-name="E" d="M 180 372.47 C 124 385.83 85 354.46 71 258.66 C 65 208.77 89 196.27 112 192.74 C 140 188.44 188 216.08 196 244.96 C 206 286.65 170 300.72 153 293.37 C 118 270.72 91 254.81 77 200.55 C 71 172.13 77 154.39 92 141.37 C 101 133.3 128 140.51 137 156.88 C 141 165.94 135 182.25 125 187.35 C 111 193.82 99 190.54 88 180.9 C 75 166.91 51 113.5 49 101.65 C 43 77.8 56 32.07 71 20.13 C 102 -2.9 136 -1.29 159 8.94" horiz-adv-x="157.52"/><glyph unicode="F" glyph-name="F" d="M 89 112.87 C 138 105.07 158 107.97 172 112.57 M 142 202.46 C 143 142.24 136 83.04 127 24.11 C 123 2.09 100 -8.74 75 3.45 C 61 12.41 53 24.1 54 40.47 M 55 219.36 C 58 243.79 69 279.22 97 280.96 C 125 280.97 141 252.92 153 231.71 C 168 208.46 200 212.65 224 221.26 C 265 237.89 273 252.78 281 270.66" horiz-adv-x="147.22"/><glyph unicode="G" glyph-name="G" d="M 150 362.36 C 123 358.2 99 350.46 82 320.29 C 69 297.39 61 272.87 65 245.41 C 70 218.8 115 200.59 138 199.48 C 169 197.96 187 247.63 185 258.58 C 185 279.21 176 287.75 158 292.87 C 130 300.16 92 251.31 75 211.1 C 67 190.43 57 169.98 75 145.33 C 99 121.89 124 125.13 149 124.26 C 171 127.06 172 137.61 179 148.89 C 171 105.14 166 60.37 146 20.26 C 138 2.44 119 -9.86 91 -1.5 C 71 4.62 55 14.5 51 33.91" horiz-adv-x="166.65"/><glyph unicode="H" glyph-name="H" d="M 65 230.22 C 63 225.98 75 265.51 86 269.16 C 95 271.81 124 244.89 129 243.55 C 140 240.96 165 289.51 162 290.53 C 160 192.5 157 94.62 145 -1.98 C 141 -24.46 109 -26.01 84 -12.37 C 66 -1.72 56 14.19 51 30.69 C 47 50.65 63 74.57 84 84.82 C 128 106.35 203 90.26 234 120.09 C 287 169.27 326 227.71 362 282.91 C 373 302.83 344 329.79 331 314.73 C 268 245.98 258 175.52 235 94.56 C 230 72.36 231 15.71 258 1.4 C 294 -11.49 319 -6.04 343 0.25" horiz-adv-x="338.47"/><glyph unicode="I" glyph-name="I" d="M 77 238.14 C 80 250.14 86 258.9 101 257.72 C 115 258.39 123 230.78 135 226.58 C 156 241.11 158 263.74 164 284.77 C 158 191.31 156 97.4 133 6.32 C 126 -18.2 111 -26.03 78 -15.1 C 54 -6.21 41 33.85 57 50.46" horiz-adv-x="152.18"/><glyph unicode="J" glyph-name="J" d="M 108 184.96 C 116 203.18 120 228.54 138 230.88 C 156 232.87 173 183 186 185.09 C 200 190.36 203 225.36 211 245.67 C 206 69.47 206 -122.31 166 -146.28 C 141 -157.29 88 -157.45 55 -130.47 C 38 -114.25 46 -94.32 59 -84.28 C 155 -17.66 206 4.55 260 19.89" horiz-adv-x="271.03"/><glyph unicode="K" glyph-name="K" d="M 332 318.36 C 329 347 283 348.21 276 336.38 C 251 294.52 241 247.04 232 199.15 C 206 194.7 179 193.5 153 191.85 C 179 192.59 201 192.44 227 190.53 C 251 151.64 251 65.03 251 24.23 C 250 -10.88 354 -18.19 340 20.47 M 44 287.78 C 50 308.1 67 321.44 84 320.6 C 96 321.65 108 276.02 124 279.13 C 147 292.89 146 323.01 153 347.95 C 146 234.89 157 122.91 118 7.89 C 112 -7.67 102 -4.89 87 3.28 C 66 17.83 55 37.93 44 57.41" horiz-adv-x="341.14"/><glyph unicode="L" glyph-name="L" d="M 189 297.22 C 182 305.44 173 309.98 154 302.05 C 133 292.01 90 230.26 101 178.09 C 111 136.42 130 101.77 166 98.07 C 196 96.15 220 120.41 220 152.42 C 220 182.77 211 212.17 188 214.84 C 162 218.22 137 196.33 128 156.05 C 121 111.69 125 64.72 127 18.03 C 128 5.81 109 -12.84 88 -11.47 C 64 -8.11 61 0.38 64 11.95 C 71 33.58 89 40.04 107 34.27 C 141 18.9 138 -1.75 189 -11.2 C 216 -15.03 233 -8.29 243 1" horiz-adv-x="238.1"/><glyph unicode="M" glyph-name="M" d="M 59 56.25 C 47 44.86 37 28.3 52 -0.3 C 65 -25.69 106 -22.11 117 -8.46 C 149 31.95 155 150.71 262 234.93 C 235 152.42 207 70.22 222 -20.75 C 277 75.25 340 166.09 408 253.68 C 374 186.84 317 128.7 308 52.13 C 306 13.1 321 8.2 339 -0.58 C 370 -12.23 391 -7.84 414 3.52" horiz-adv-x="412.55"/><glyph unicode="N" glyph-name="N" d="M 57 60.3 C 62 13.09 68 -2.76 84 -7.23 C 146 -11.67 183 159.7 232 260.5 C 257 218.66 231 89.69 249 -0.17 C 280 84.26 268 174.6 354 291.83 C 370 312.33 395 276.19 395 252.89" horiz-adv-x="255.61"/><glyph unicode="O" glyph-name="O" d="M 107 -7.53 C -32 18.68 93 324.87 208 293.7 C 326 261.64 206 -29.62 107 -7.53 Z" horiz-adv-x="206.64"/><glyph unicode="P" glyph-name="P" d="M 79 198.19 C 85 231.95 105 251.56 135 257.62 C 182 266.44 212 246.58 226 216.55 C 242 187.15 241 162.97 236 140.38 C 228 112.79 208 96.41 158 84.89 M 132 191.07 C 156 126.4 150 58.59 127 0.81 C 119 -16.53 77 3.26 60 20.65" horiz-adv-x="143.26"/><glyph unicode="Q" glyph-name="Q" d="M 162 75.45 C 162 46.95 179 17.37 202 -0.91 C 225 -17.46 239 -8.54 254 -1 M 123 221.66 C 97 172.99 68 128.87 70 66.8 C 72 23.38 97 -0.38 122 3.74 C 196 17.88 221 74.59 231 104.73 C 247 158.15 264 226.82 230 251.54 C 209 265.91 166 247.75 147 227.3 C 134 210.88 124 199.25 117 177.82" horiz-adv-x="250.56"/><glyph unicode="R" glyph-name="R" d="M 86 218.41 C 108 268.14 146 292.03 190 305.98 C 223 315.43 251 314.69 262 284.14 C 270 250.16 271 200.08 244 151.38 C 227 144.7 212 143.78 196 142.17 C 213 143.06 231 141.78 247 137.02 C 287 96.81 233 51.33 238 22.03 C 242 -5.97 284 -2.84 310 3.93 M 151 244.65 C 155 166.11 140 84.88 123 3.51 C 120 -10.36 109 -26.69 80 -11.54 C 59 -0.39 51 16.64 44 33.19" horiz-adv-x="306.53"/><glyph unicode="S" glyph-name="S" d="M 146 321.33 C 116 321.86 87 294.46 70 249.87 C 54 212.68 53 176.61 72 142.26 C 85 121.86 120 129.26 139 141.21 C 173 160.25 175 165.96 185 189.8 C 193 214.46 163 238.85 135 225.04 C 66 110.15 142 38.48 117 5.54 C 91 -22.87 65 12.03 59 28.76" horiz-adv-x="134.9"/><glyph unicode="T" glyph-name="T" d="M 145 186.95 C 149 128.26 156 58.31 145 10.89 C 140 -5.32 124 -5.14 92 0.89 C 77 5.44 79 16.01 79 28.13 M 49 235.51 C 51 270.59 89 299.58 104 296.83 C 123 294.4 150 232.34 199 229.59 C 247 228.93 273 270.99 287 311.86" horiz-adv-x="157.88"/><glyph unicode="U" glyph-name="U" d="M 51 244.53 C 52 264.16 72 287.68 93 289.03 C 110 290.1 119 283.71 130 267.55 C 146 247.77 76 145.35 103 57.13 C 112 30.64 126 14.86 149 14.29 C 184 16.93 212 28.26 221 61.03 C 234 127.62 251 190.19 267 255.31 C 251 179.54 237 109.37 226 32.32 C 222 -8.89 303 -8.3 332 2.72" horiz-adv-x="323.15"/><glyph unicode="V" glyph-name="V" d="M 65 248.57 C 72 283.21 104 299.71 121 293.71 C 143 287.2 144 275.09 150 259.18 C 166 182.85 81 129.26 116 18.62 C 127 -10.84 150 -17.09 170 -5.97 C 211 20.07 250 87.63 265 151.75 C 276 200.16 282 250.01 273 301.09 C 269 313.72 255 310.41 256 301.61 C 263 248.8 334 271.85 373 275.99" horiz-adv-x="227.09"/><glyph unicode="W" glyph-name="W" d="M 61 203.8 C 62 237.73 79 253.25 103 259.24 C 125 263.72 135 248.54 136 233.75 C 140 153.67 118 101.9 131 14.43 C 134 -5.7 168 -4.95 172 8 C 204 84.72 228 163.62 251 242.65 C 234 175.73 208 107.46 203 38.15 C 202 21.29 221 -3.48 247 -5.37 C 306 -7.59 366 153.65 372 255.07 C 373 266.93 348 264.13 350 254.39 C 360 223.6 395 228.3 450 254.76" horiz-adv-x="309.36"/><glyph unicode="X" glyph-name="X" d="M 102 146.27 C 134 135.96 167 133.79 201 141.54 M 255 291.12 C 216 259.61 176 224.95 154 134.47 C 142 76.52 129 53.48 142 28.1 C 169 -11.64 203 -1.91 237 3.45 M 81 269.74 C 84 285.31 97 296.9 111 293.33 C 162 278.98 150 190.29 146 134.56 C 140 77.76 111 29.99 64 0.37" horiz-adv-x="236.45"/><glyph unicode="Y" glyph-name="Y" d="M 63 225.45 C 69 252.02 77 268.98 104 282.95 C 117 289.66 127 283.61 134 273.31 C 149 247.74 95 180.04 123 110.21 C 134 83.78 163 80.46 172 92.88 C 209 147.74 216 206.82 230 264.89 C 220 128.36 217 -9.22 164 -135.24 C 155 -153.71 135 -159.02 110 -139.17 C 76 -110.33 77 -66.9 85 -30.57 C 98 17.22 135 31 170 31.97 C 220 32.41 198 15.18 297 -0.33" horiz-adv-x="294.94"/><glyph unicode="Z" glyph-name="Z" d="M 132 136.39 C 161 131.32 190 126.56 219 131.01 M 56 248.2 C 68 272.37 79 296.15 117 299.94 C 150 300.28 173 247.26 233 231.91 L 268 269.14 C 202 185.34 149 97.17 101 7.18 C 163 34.37 213 22.73 257 -0.48" horiz-adv-x="255.62"/><glyph unicode="[" glyph-name="[" d="M 163 321.2 C 142 335.23 81 322.46 82 314.35 C 68 201.98 71 106.95 67 4.33 C 103 -4.2 132 -6.12 161 5.31" horiz-adv-x="216.91"/><glyph unicode="\" glyph-name="\" d="M 68 216.22 C 120 155.18 169 94.58 202 36.21" horiz-adv-x="270.1"/><glyph unicode="]" glyph-name="]" d="M 91 350.1 C 143 357.07 182 355.97 218 352.89 C 217 237.33 197 120.13 177 2.96 C 144 -1.11 82 -6.12 53 4.8" horiz-adv-x="276.16"/><glyph unicode="^" glyph-name="^" d="M 54 322.14 C 63 352.07 81 385.16 117 425.88 C 134 405.94 157 387.68 159 363.17" horiz-adv-x="213.01"/><glyph unicode="_" glyph-name="_" d="M 77 -4.07 C 149 19.08 201 6.62 251 -10.53" horiz-adv-x="316.47"/><glyph unicode="a" glyph-name="a" d="M 197 31.64 C 211 8.22 240 -6.94 275 0.85 M 0 -1.96 C 43 2.1 88 36.73 122 90.76 C 89 -19.95 200 -11.3 219 77.24 C 225 111.64 225 146.97 202 157.74 C 167 170.89 139 129.72 127 100.39" horiz-adv-x="273.65"/><glyph unicode="b" glyph-name="b" d="M 0 0.12 C 132 14.06 222 244.6 209 293.75 C 205 313.44 173 321.68 157 293.42 C 102 200.77 103 84.47 121 50.82 C 136 26.53 172 12.73 198 17.07 C 227 22.06 238 41.48 239 75.09 C 239 96.07 221 112.28 207 102.77 C 177 66 273 38.69 314 1.9" horiz-adv-x="314.2"/><glyph unicode="c" glyph-name="c" d="M 190 152.4 C 169 198.61 19 42 138 7.33 C 170 -2.68 205 3.73 234 4.63 M -2 0.39 C 12 5.59 58 -2.85 93 47.29" horiz-adv-x="231.62"/><glyph unicode="d" glyph-name="d" d="M 258 252.52 C 227 177.48 179 93.65 168 29.02 C 164 -12.39 222 0.83 259 2.82 M -1 1.91 C 29 8.49 68 31.8 101 82.6 C 73 -37.25 145 1.44 174 69.5 C 201 127.59 186 139.07 166 143.25 C 143 147.46 123 136.74 109 100.3" horiz-adv-x="260.14"/><glyph unicode="e" glyph-name="e" d="M -3 -1.06 C 87 -0.52 142 87.55 137 123.11 C 136 155.15 86 152.05 80 124.2 C 63 71.76 67 29.71 93 19.2 C 128 4.2 171 4.42 206 -0.19" horiz-adv-x="206.0"/><glyph unicode="f" glyph-name="f" d="M 70 20.77 C 115 -18.25 164 -2.79 212 0.96 M -1 -1.57 C 131 25.38 210 235.11 207 260.19 C 203 289.95 159 292.69 152 276.03 C 75 122.31 72 7.05 40 -123.51" horiz-adv-x="213.14"/><glyph unicode="g" glyph-name="g" d="M 169 118.14 C 162 30.7 160 -62.01 137 -134.75 C 128 -167.22 28 -182.42 25 -123.77 C 26 -90.9 38 -62.52 54 -44.1 C 130 36.26 295 10.85 320 0.65 M -1 -0.38 C 41 9.22 60 64.25 87 103.06 C 23 -13.56 147 13.42 161 73.65 C 169 113.21 170 133.72 149 141.76 C 131 146.75 113 144.77 97 115.46" horiz-adv-x="318.58"/><glyph unicode="h" glyph-name="h" d="M 90 -4.2 C 99 79.41 160 154.73 192 111.67 C 205 84.56 198 55.46 193 22.09 C 191 -7.11 238 11.3 283 3.08 M 1 2.1 C 123 26.01 214 263.28 204 295.96 C 193 347.91 149 355.1 140 334.24 C 98 211.04 101 109.34 90 -4.2" horiz-adv-x="280.77"/><glyph unicode="i" glyph-name="i" d="M 149 235.62 L 139 215.88 M 0 0.75 C 48 22.55 86 86.17 110 149.97 C 91 107.82 84 65.67 92 23.53 C 99 -4.19 152 -1.17 186 2.07" horiz-adv-x="186.53"/><glyph unicode="j" glyph-name="j" d="M 161 210.91 L 149 191.02 M -5 -2.65 C 53 36.01 92 87.4 122 143.09 C 121 50.15 109 -30.82 92 -120.49 C 86 -154.86 55 -172.57 29 -152.26 C 20 -144.61 14 -136.92 14 -136.77 C -1 -110.12 -3 -54.47 23 -29.34 C 55 3.31 198 18.5 262 1.57" horiz-adv-x="263.0"/><glyph unicode="k" glyph-name="k" d="M 4 -0.88 C 132 60.33 192 284.93 189 304.75 C 187 334.71 147 342.08 133 311.64 C 96 208.41 92 107.32 76 0.02 L 109 78.01 C 121 108.39 160 97.17 164 78.26 C 167 58.07 165 29.43 118 5.72 C 152 -3.42 188 -1.98 224 0.37" horiz-adv-x="222.23"/><glyph unicode="l" glyph-name="l" d="M 0 -0.32 C 127 77.59 198 215.77 202 288.3 C 201 310.03 166 315.64 149 294.51 C 115 243.75 42 149.45 88 73.61 C 129 18.06 161 -6.32 200 -2.11" horiz-adv-x="198.42"/><glyph unicode="m" glyph-name="m" d="M -3 1.55 C 19 9.87 22 101.65 57 123.82 C 81 137.14 104 124.78 108 114.82 L 97 4.15 L 115 114.39 C 131 143.32 197 140.15 202 113.99 L 188 15.55 L 208 113.6 C 223 138.87 262 135.4 268 113.16 C 271 78.18 260 30.15 282 13.91 C 305 -2.62 317 -0.18 334 0.26" horiz-adv-x="332.0"/><glyph unicode="n" glyph-name="n" d="M -3 0.15 C 44 46.41 55 84.48 74 127.76 C 83 150.37 133 146.5 131 127.58 L 118 2.47 L 137 125.35 C 143 149.43 209 142.03 210 120.82 C 208 84.97 205 40.35 214 22.9 C 236 -4.62 258 -0.64 278 -0.76" horiz-adv-x="278.27"/><glyph unicode="o" glyph-name="o" d="M 155 173.95 C 165 120.38 220 22.53 294 0.92 M -2 0.63 C 35 18.13 71 46.09 99 122.16 C 74 -20.78 181 -0.13 209 85.78 C 226 141.95 211 164.58 181 176.5 C 149 187.53 125 156.19 108 134.96" horiz-adv-x="295.57"/><glyph unicode="p" glyph-name="p" d="M 149 99.27 C 164 117.58 169 146.43 200 140.88 C 225 136.06 228 123.26 229 109.66 C 230 78.82 210 53.58 211 16.51 C 210 -7.67 266 2.93 295 -1.07 M 1 -0.47 C 82 33.32 123 99.98 168 163.95 L 71 -169.73" horiz-adv-x="295.85"/><glyph unicode="q" glyph-name="q" d="M 243 140.34 L 162 -162.95 C 178 -149.36 195 -145.29 214 -152.97 C 243 -172.58 274 -174.53 305 -177.78 M 0 -3.04 C 56 14.62 95 53.12 129 114.55 C 100 -21.96 208 35.15 230 93.59 C 242 127.96 242 160.22 219 171.96 C 172 188.2 146 153.92 138 129.51" horiz-adv-x="223.94"/><glyph unicode="r" glyph-name="r" d="M 2 -0.63 C 98 9.64 154 162.46 145 190.61 C 140 215.05 99 213.2 102 192.07 C 106 165.71 115 154.18 125 150.44 C 144 140.04 202 164.58 208 139.77 C 214 91.56 175 38.64 190 27.86 C 211 5.55 244 0.77 272 -0.08" horiz-adv-x="271.81"/><glyph unicode="s" glyph-name="s" d="M 5 0.42 C 82 39.32 114 100.1 137 165.05 C 193 102 193 43.96 168 -11.96" horiz-adv-x="191.73"/><glyph unicode="t" glyph-name="t" d="M 83 199.03 C 113 192.36 146 194.4 172 177.87 M 0 -0.35 C 108 59.69 124 172.7 164 269.87 C 142 198.12 113 131 100 54.62 C 93 16.02 172 6.44 203 -1.53" horiz-adv-x="203.63"/><glyph unicode="u" glyph-name="u" d="M -1 -2.03 C 53 21.63 80 94.26 117 149.91 C 7 -58.33 213 9.25 229 137.57 C 222 102.44 208 62.44 214 27.44 C 227 -8.7 257 5.09 280 -0.13" horiz-adv-x="277.49"/><glyph unicode="v" glyph-name="v" d="M -1 -1.53 C 29 54.16 29 136.73 85 176.39 C 117 198.25 130 178.64 136 169.7 C 152 112.19 77 54.33 99 3.3 C 114 -20.07 135 -14.72 155 -9.33 C 214 12 251 108.08 273 174.76 C 276 197.92 224 201.42 219 181.92 C 203 141.12 290 158.68 317 0.5" horiz-adv-x="319.9"/><glyph unicode="w" glyph-name="w" d="M 0 -0.6 C 13 28.35 3 113.91 23 166.34 C 33 189.67 65 174.55 59 157.55 C 33 97.22 18 53.62 39 10.18 C 48 -3.55 67 -1.21 79 8.93 C 141 60.17 135 112.77 156 164.83 C 143 113.16 126 76.61 143 22.25 C 151 1.33 178 6.86 190 18.95 C 242 67.64 258 119.95 276 177.2 C 278 192.2 239 200.06 238 178.74 C 239 103.5 313 127.1 324 -1.22" horiz-adv-x="324.81"/><glyph unicode="x" glyph-name="x" d="M 54 140.11 C 88 134.29 117 126.18 178 133.28 M 192 206.13 C 69 176.5 70 8.3 185 -0.36 M 51 221.46 C 159 182.99 79 35.36 0 -1.65" horiz-adv-x="183.69"/><glyph unicode="y" glyph-name="y" d="M -1 -1.21 C 20 47.57 47 90.06 85 120.83 C 107 138.65 123 130.6 130 120.87 C 150 87.72 98 39.02 112 -3.74 C 122 -30.66 156 -20.48 174 2.36 C 213 50.96 211 91.56 225 135.33 C 217 -5.76 207 -193.7 183 -206.17 C 128 -225.45 89 -157.83 93 -132 C 98 -67.95 276 -12.94 351 0.65" horiz-adv-x="350.31"/><glyph unicode="z" glyph-name="z" d="M 38 120.12 C 65 111.64 92 104.19 121 104.28 M -33 162.75 C -27 184.6 -2 202.98 13 201.56 C 34 201.1 48 155.02 83 147.61 C 96 145.48 108 161.41 120 174.7 C 78 116.6 27 59.81 -2 -0.54 C 96 -11.82 115 -6.86 131 -1.11" horiz-adv-x="129.36"/><glyph unicode="{" glyph-name="{" d="M 171 280.4 C 188 288.59 188 294.28 188 304.52 C 182 326 168 331.93 148 333.54 C 131 333.97 102 317.65 98 293.33 C 87 248.54 89 204.54 92 159.9 L 46 147.99 L 90 147.73 C 110 129.64 121 107.58 130 83.48 C 138 47.29 110 34 112 15.51 C 121 -11.42 146 -7.08 156 -6.69 C 172 -4.24 188 -2.85 199 5.28" horiz-adv-x="263.7"/><glyph unicode="|" glyph-name="|" d="M 83 273.95 C 70 182.21 73 100.49 73 16.53" horiz-adv-x="146.72"/><glyph unicode="}" glyph-name="}" d="M 109 302.78 C 109 318.05 119 324.55 132 328.28 C 148 332.2 164 327.4 173 320.75 C 185 309.77 183 296.48 180 280.81 C 176 253.71 136 183.66 158 162.39 C 168 154.67 178 152.47 189 148.42 C 177 150.18 163 158.52 148 149.44 C 95 102.84 148 37.04 139 21.5 C 120 -13.17 92 -7.29 65 -0.01" horiz-adv-x="246.77"/><glyph unicode="~" glyph-name="~" d="M 44 179.98 C 53 205.94 83 232.73 95 237.53 C 114 228.44 111 184.81 136 184.67 C 184 184.38 210 229.76 210 227.85" horiz-adv-x="253.11"/><glyph unicode="Â" glyph-name="Â" d="M 204 333.26 C 228 380.35 251 389.42 270 385.26 C 297 378.96 292 354.44 302 325.2 M 91 157.6 C 135 128.42 182 155.29 250 131.98 M 3 51.69 C 4 30.13 11 0.59 40 -2.83 C 115 -0.21 116 180.52 184 247.93 C 199 261.94 215 261.9 231 257.02 C 248 250.22 260 236.58 256 226.55 C 217 163.46 184 99.41 174 27.41 C 168 -6.71 231 -8 259 -1.1" horiz-adv-x="256.43"/><glyph unicode="Î" glyph-name="Î" d="M 135 383.29 C 138 396.79 149 412.89 160 418.07 C 182 417.73 198 383.8 221 372.49 M 60 250.77 C 65 275.7 77 295.4 83 295.83 C 93 300.73 108 255.96 133 263.75 C 147 268.69 152 298.75 159 319.7 C 156 215.52 162 107.16 142 8.48 C 137 -10.53 101 -14.2 62 2.09 C 45 11.56 45 26.41 43 38.38" horiz-adv-x="163.13"/><glyph unicode="â" glyph-name="â" d="M 187 64.29 C 213 7.85 255 8.42 295 -1.33 M 152 228.64 C 212 276.44 243 259.91 261 213.73 M -2 -0.83 C 47 13.95 85 42.68 109 90.44 C 96 -7.24 167 12.49 196 81.67 C 211 119.13 212 148.73 181 166.57 C 154 181.6 131 151.37 119 122.3" horiz-adv-x="293.69"/><glyph unicode="î" glyph-name="î" d="M 110 199.48 C 126 267.62 159 242.92 199 186.35 M 0 -1.76 C 82 8 111 85.64 126 148.72 C 120 104.79 98 51.58 112 18.51 C 126 -9.31 156 -4.12 186 -1.2" horiz-adv-x="185.51"/><glyph unicode="Ă" glyph-name="Ă" d="M 226 394.01 C 249 333.42 304 332.4 354 349.69 M 124 143.15 C 132 159.57 149 164.4 169 166.02 C 193 164.74 218 154.89 236 140.9 C 270 126.51 283 136.79 295 144.96 M 46 65.8 C 39 44.41 41 30.57 57 4.27 C 69 -10.96 99 -11.43 109 1.08 C 177 110.01 153 176.08 205 270.28 C 222 298.59 250 295.62 287 294.1 C 301 293.12 313 276.66 306 265.74 C 262 203.21 233 140.15 216 67.95 C 208 33.71 217 11.44 254 5.84 C 273 3.01 287 2.58 302 2.14" horiz-adv-x="302.19"/><glyph unicode="ă" glyph-name="ă" d="M 170 41.19 C 184 4.72 218 -4.13 261 -1.99 M 153 243.83 C 177 201.13 212 202 255 232.76 M 0 -1.78 C 35 5.35 70 12.15 90 66.08 C 65 -23.46 155 -4.11 178 58.06 C 186 85.18 181 116.36 156 125.92 C 120 133.52 102 99.87 96 79.29" horiz-adv-x="260.27"/><glyph unicode="Ș" glyph-name="Ș" d="M 80 -62.97 C 91 -65.16 96 -71.16 94 -80.7 C 89 -102.36 65 -130.63 54 -145.11 M 183 278.52 C 171 295.15 154 299.05 132 297.75 C 110 294.6 76 251.22 84 200.42 C 89 172.14 114 146.94 145 136.65 C 164 132.15 182 134.52 186 147.73 C 195 170.96 194 179.53 187 196.69 C 182 212.07 164 217.07 148 210.54 C 130 203.15 110 168.5 110 136.22 C 105 80.83 115 26.37 106 -0.75 C 90 -5.74 71 -8 54 13.01 C 36 39.98 46 49.9 53 62.31" horiz-adv-x="121.6"/><glyph unicode="ș" glyph-name="ș" d="M 48 -57.11 C 58 -58.25 66 -57.85 68 -70.34 C 68 -84.42 67 -90.34 55 -122.83 M 1 -3.46 C 58 12.83 70 80.45 86 144.6 C 138 116.69 132 52.84 138 -4.04" horiz-adv-x="138.3"/><glyph unicode="Ț" glyph-name="Ț" d="M 113 -47.96 C 124 -48.44 129 -57.49 130 -65.89 C 130 -90.03 116 -104.42 102 -118.7 M 158 199.72 C 171 136.79 160 34.27 152 15.96 C 146 1.66 141 -13.43 100 -9.47 C 68 -4.36 72 32.11 68 56.31 M 45 206.83 C 60 237.86 86 277.16 108 276.92 C 146 269 138 240.04 177 221.23 C 223 208.64 256 223.01 276 252.43" horiz-adv-x="160.4"/><glyph unicode="ț" glyph-name="ț" d="M 92 -31.18 C 101 -36.36 109 -42.97 107 -49.72 C 98 -67.83 85 -78.35 73 -91.23 M 99 205.81 C 167 228.7 188 219.91 214 213.75 M -2 -1.17 C 167 27.81 139 181.17 180 287.24 C 167 200.79 131 129.81 149 40.5 C 164 -1.85 198 -4.29 236 -0.74" horiz-adv-x="236.4"/></font>
</defs>
</svg>
